<svg width="185" height="30" viewBox="0 0 185 30" fill="none" xmlns="http://www.w3.org/2000/svg">
<path d="M33.0159 16.224V15.296H34.8239C35.1759 15.296 35.4852 15.2373 35.7519 15.12C36.0185 15.0027 36.2265 14.8373 36.3759 14.624C36.5252 14.4 36.5999 14.1333 36.5999 13.824C36.5999 13.3547 36.4345 12.992 36.1039 12.736C35.7732 12.48 35.3465 12.352 34.8239 12.352H33.4639V20.448H35.0319C35.4585 20.448 35.8372 20.3787 36.1679 20.24C36.4985 20.1013 36.7599 19.8933 36.9519 19.616C37.1439 19.3387 37.2399 18.992 37.2399 18.576C37.2399 18.2773 37.1812 18.016 37.0639 17.792C36.9572 17.5573 36.8025 17.3653 36.5999 17.216C36.4079 17.056 36.1785 16.944 35.9119 16.88C35.6452 16.8053 35.3519 16.768 35.0319 16.768H33.0159V15.728H35.1439C35.6879 15.728 36.1999 15.7867 36.6799 15.904C37.1599 16.0213 37.5865 16.2027 37.9599 16.448C38.3439 16.6933 38.6425 17.008 38.8559 17.392C39.0692 17.776 39.1759 18.2347 39.1759 18.768C39.1759 19.504 38.9999 20.112 38.6479 20.592C38.3065 21.072 37.8319 21.4293 37.2239 21.664C36.6265 21.888 35.9332 22 35.1439 22H31.5759V10.8H34.9519C35.6559 10.8 36.2745 10.9013 36.8079 11.104C37.3519 11.3067 37.7732 11.616 38.0719 12.032C38.3812 12.448 38.5359 12.976 38.5359 13.616C38.5359 14.1707 38.3812 14.6453 38.0719 15.04C37.7732 15.424 37.3519 15.7173 36.8079 15.92C36.2745 16.1227 35.6559 16.224 34.9519 16.224H33.0159ZM42.7376 14.64V22H41.0256V14.64H42.7376ZM44.9296 16.48C44.7696 16.352 44.6203 16.256 44.4816 16.192C44.343 16.128 44.167 16.096 43.9536 16.096C43.6656 16.096 43.431 16.1707 43.2496 16.32C43.0683 16.4693 42.935 16.6773 42.8496 16.944C42.775 17.2 42.7376 17.504 42.7376 17.856L42.1616 17.52C42.1616 16.9333 42.2683 16.416 42.4816 15.968C42.7056 15.5093 42.9883 15.1467 43.3296 14.88C43.6816 14.6133 44.0443 14.48 44.4176 14.48C44.6843 14.48 44.935 14.5227 45.1696 14.608C45.4043 14.6827 45.6016 14.8213 45.7616 15.024L44.9296 16.48ZM46.1531 18.32C46.1531 17.5627 46.3238 16.896 46.6651 16.32C47.0171 15.744 47.4918 15.296 48.0891 14.976C48.6865 14.6453 49.3638 14.48 50.1211 14.48C50.8785 14.48 51.5505 14.6453 52.1371 14.976C52.7345 15.296 53.2091 15.744 53.5611 16.32C53.9131 16.896 54.0891 17.5627 54.0891 18.32C54.0891 19.0667 53.9131 19.7333 53.5611 20.32C53.2091 20.896 52.7345 21.3493 52.1371 21.68C51.5505 22 50.8785 22.16 50.1211 22.16C49.3638 22.16 48.6865 22 48.0891 21.68C47.4918 21.3493 47.0171 20.896 46.6651 20.32C46.3238 19.7333 46.1531 19.0667 46.1531 18.32ZM47.9291 18.32C47.9291 18.7787 48.0251 19.184 48.2171 19.536C48.4091 19.8773 48.6705 20.1493 49.0011 20.352C49.3318 20.544 49.7051 20.64 50.1211 20.64C50.5265 20.64 50.8945 20.544 51.2251 20.352C51.5665 20.1493 51.8331 19.8773 52.0251 19.536C52.2171 19.184 52.3131 18.7787 52.3131 18.32C52.3131 17.8613 52.2171 17.456 52.0251 17.104C51.8331 16.752 51.5665 16.48 51.2251 16.288C50.8945 16.096 50.5265 16 50.1211 16C49.7051 16 49.3318 16.096 49.0011 16.288C48.6705 16.48 48.4091 16.752 48.2171 17.104C48.0251 17.456 47.9291 17.8613 47.9291 18.32ZM54.3904 14.64H56.2624L57.9904 19.024L60.0224 14.08L62.1824 19.04L63.9104 14.64H65.7824L62.3424 22.528L60.0384 17.552L57.8304 22.528L54.3904 14.64ZM67.221 19.584C67.4557 19.84 67.6903 20.064 67.925 20.256C68.1703 20.4373 68.4157 20.576 68.661 20.672C68.9063 20.7573 69.1517 20.8 69.397 20.8C69.7063 20.8 69.9463 20.7307 70.117 20.592C70.2983 20.4533 70.389 20.2613 70.389 20.016C70.389 19.8027 70.3197 19.6213 70.181 19.472C70.0423 19.312 69.8503 19.1787 69.605 19.072C69.3597 18.9547 69.0717 18.8373 68.741 18.72C68.4103 18.592 68.0797 18.4427 67.749 18.272C67.429 18.0907 67.1623 17.856 66.949 17.568C66.7463 17.28 66.645 16.9173 66.645 16.48C66.645 16.032 66.757 15.6587 66.981 15.36C67.2157 15.0613 67.525 14.8427 67.909 14.704C68.3037 14.5547 68.725 14.48 69.173 14.48C69.5783 14.48 69.957 14.5387 70.309 14.656C70.6717 14.7733 70.997 14.928 71.285 15.12C71.573 15.312 71.8183 15.5307 72.021 15.776L71.061 16.8C70.8157 16.512 70.5223 16.2773 70.181 16.096C69.8397 15.9147 69.4877 15.824 69.125 15.824C68.8797 15.824 68.677 15.8773 68.517 15.984C68.357 16.0907 68.277 16.2453 68.277 16.448C68.277 16.6187 68.3463 16.7733 68.485 16.912C68.6343 17.04 68.8263 17.1573 69.061 17.264C69.3063 17.3707 69.5783 17.4827 69.877 17.6C70.2823 17.76 70.6557 17.936 70.997 18.128C71.3383 18.32 71.6103 18.5547 71.813 18.832C72.0263 19.1093 72.133 19.472 72.133 19.92C72.133 20.6133 71.893 21.1733 71.413 21.6C70.9437 22.016 70.3037 22.224 69.493 22.224C68.9917 22.224 68.5277 22.1493 68.101 22C67.685 21.84 67.317 21.6373 66.997 21.392C66.6877 21.136 66.4263 20.8693 66.213 20.592L67.221 19.584ZM76.8663 22.16C76.1196 22.16 75.4583 22 74.8823 21.68C74.3169 21.36 73.8796 20.912 73.5703 20.336C73.2609 19.76 73.1063 19.088 73.1063 18.32C73.1063 17.5413 73.2609 16.864 73.5703 16.288C73.8903 15.712 74.3383 15.2693 74.9143 14.96C75.4903 14.64 76.1676 14.48 76.9463 14.48C77.7249 14.48 78.3863 14.6293 78.9303 14.928C79.4743 15.2267 79.8903 15.6587 80.1783 16.224C80.4769 16.7787 80.6263 17.4507 80.6263 18.24C80.6263 18.3253 80.6209 18.416 80.6103 18.512C80.6103 18.608 80.6049 18.6773 80.5943 18.72H74.1303V17.536H79.1223L78.5943 18.272C78.6263 18.208 78.6583 18.1227 78.6903 18.016C78.7329 17.8987 78.7543 17.8027 78.7543 17.728C78.7543 17.3333 78.6743 16.992 78.5143 16.704C78.3649 16.416 78.1516 16.192 77.8743 16.032C77.6076 15.872 77.2929 15.792 76.9303 15.792C76.4929 15.792 76.1196 15.888 75.8103 16.08C75.5009 16.272 75.2663 16.5493 75.1063 16.912C74.9463 17.2747 74.8609 17.7227 74.8503 18.256C74.8503 18.7893 74.9303 19.2427 75.0903 19.616C75.2503 19.9787 75.4849 20.256 75.7943 20.448C76.1143 20.64 76.4983 20.736 76.9463 20.736C77.4156 20.736 77.8263 20.64 78.1783 20.448C78.5303 20.256 78.8236 19.9627 79.0583 19.568L80.5463 20.176C80.1623 20.8373 79.6663 21.3333 79.0583 21.664C78.4503 21.9947 77.7196 22.16 76.8663 22.16ZM88.6085 16.4C88.6085 17.1893 88.7845 17.8827 89.1365 18.48C89.4992 19.0773 89.9685 19.5413 90.5445 19.872C91.1312 20.192 91.7658 20.352 92.4485 20.352C92.9818 20.352 93.4618 20.2827 93.8885 20.144C94.3152 20.0053 94.6992 19.8187 95.0405 19.584C95.3925 19.3387 95.6965 19.0667 95.9525 18.768V21.008C95.4832 21.392 94.9765 21.6853 94.4325 21.888C93.8885 22.0907 93.2058 22.192 92.3845 22.192C91.5632 22.192 90.7952 22.0533 90.0805 21.776C89.3765 21.4987 88.7632 21.0987 88.2405 20.576C87.7178 20.0533 87.3072 19.44 87.0085 18.736C86.7205 18.0213 86.5765 17.2427 86.5765 16.4C86.5765 15.5573 86.7205 14.784 87.0085 14.08C87.3072 13.3653 87.7178 12.7467 88.2405 12.224C88.7632 11.7013 89.3765 11.3013 90.0805 11.024C90.7952 10.7467 91.5632 10.608 92.3845 10.608C93.2058 10.608 93.8885 10.7093 94.4325 10.912C94.9765 11.1147 95.4832 11.408 95.9525 11.792V14.032C95.6965 13.7333 95.3925 13.4667 95.0405 13.232C94.6992 12.9867 94.3152 12.7947 93.8885 12.656C93.4618 12.5173 92.9818 12.448 92.4485 12.448C91.7658 12.448 91.1312 12.6133 90.5445 12.944C89.9685 13.264 89.4992 13.7227 89.1365 14.32C88.7845 14.9067 88.6085 15.6 88.6085 16.4ZM99.223 19.712C99.223 19.9573 99.2817 20.1707 99.399 20.352C99.5163 20.5227 99.6763 20.6507 99.879 20.736C100.092 20.8213 100.332 20.864 100.599 20.864C100.94 20.864 101.25 20.7947 101.527 20.656C101.815 20.5173 102.044 20.3147 102.215 20.048C102.396 19.7707 102.487 19.4507 102.487 19.088L102.743 20.048C102.743 20.5173 102.604 20.912 102.327 21.232C102.06 21.5413 101.719 21.776 101.303 21.936C100.898 22.0853 100.482 22.16 100.055 22.16C99.5963 22.16 99.1697 22.0693 98.775 21.888C98.3803 21.7067 98.0657 21.44 97.831 21.088C97.5963 20.736 97.479 20.3093 97.479 19.808C97.479 19.0933 97.7297 18.528 98.231 18.112C98.7323 17.6853 99.4417 17.472 100.359 17.472C100.85 17.472 101.271 17.5253 101.623 17.632C101.986 17.7387 102.284 17.8667 102.519 18.016C102.754 18.1547 102.919 18.2827 103.015 18.4V19.28C102.684 19.0453 102.332 18.8747 101.959 18.768C101.586 18.6613 101.191 18.608 100.775 18.608C100.412 18.608 100.119 18.656 99.895 18.752C99.671 18.8373 99.5003 18.96 99.383 19.12C99.2763 19.28 99.223 19.4773 99.223 19.712ZM98.679 16.56L97.975 15.344C98.3057 15.1413 98.7323 14.944 99.255 14.752C99.7883 14.56 100.396 14.464 101.079 14.464C101.687 14.464 102.22 14.5547 102.679 14.736C103.148 14.9173 103.516 15.1787 103.783 15.52C104.05 15.8507 104.183 16.2613 104.183 16.752V22H102.487V17.088C102.487 16.8533 102.444 16.6613 102.359 16.512C102.284 16.3627 102.178 16.24 102.039 16.144C101.9 16.048 101.735 15.9787 101.543 15.936C101.351 15.8933 101.143 15.872 100.919 15.872C100.578 15.872 100.252 15.9147 99.943 16C99.6443 16.0747 99.383 16.1707 99.159 16.288C98.9457 16.3947 98.7857 16.4853 98.679 16.56ZM105.174 14.64H109.35V16.16H105.174V14.64ZM106.406 12.08H108.118V22H106.406V12.08ZM113.741 22.16C112.995 22.16 112.333 22 111.757 21.68C111.192 21.36 110.755 20.912 110.445 20.336C110.136 19.76 109.981 19.088 109.981 18.32C109.981 17.5413 110.136 16.864 110.445 16.288C110.765 15.712 111.213 15.2693 111.789 14.96C112.365 14.64 113.043 14.48 113.821 14.48C114.6 14.48 115.261 14.6293 115.805 14.928C116.349 15.2267 116.765 15.6587 117.053 16.224C117.352 16.7787 117.501 17.4507 117.501 18.24C117.501 18.3253 117.496 18.416 117.485 18.512C117.485 18.608 117.48 18.6773 117.469 18.72H111.005V17.536H115.997L115.469 18.272C115.501 18.208 115.533 18.1227 115.565 18.016C115.608 17.8987 115.629 17.8027 115.629 17.728C115.629 17.3333 115.549 16.992 115.389 16.704C115.24 16.416 115.027 16.192 114.749 16.032C114.483 15.872 114.168 15.792 113.805 15.792C113.368 15.792 112.995 15.888 112.685 16.08C112.376 16.272 112.141 16.5493 111.981 16.912C111.821 17.2747 111.736 17.7227 111.725 18.256C111.725 18.7893 111.805 19.2427 111.965 19.616C112.125 19.9787 112.36 20.256 112.669 20.448C112.989 20.64 113.373 20.736 113.821 20.736C114.291 20.736 114.701 20.64 115.053 20.448C115.405 20.256 115.699 19.9627 115.933 19.568L117.421 20.176C117.037 20.8373 116.541 21.3333 115.933 21.664C115.325 21.9947 114.595 22.16 113.741 22.16ZM118.735 22.496H120.447C120.457 22.8267 120.548 23.1253 120.719 23.392C120.9 23.6587 121.145 23.8667 121.455 24.016C121.764 24.1653 122.121 24.24 122.527 24.24C122.889 24.24 123.236 24.1547 123.567 23.984C123.897 23.8133 124.164 23.552 124.367 23.2C124.58 22.848 124.687 22.3947 124.687 21.84V14.64H126.383V21.84C126.383 22.7253 126.201 23.456 125.839 24.032C125.487 24.608 125.023 25.0347 124.447 25.312C123.871 25.6 123.247 25.744 122.575 25.744C121.775 25.744 121.092 25.6053 120.527 25.328C119.961 25.0613 119.524 24.6827 119.215 24.192C118.916 23.7013 118.756 23.136 118.735 22.496ZM118.591 18.288C118.591 17.4667 118.756 16.7787 119.087 16.224C119.417 15.6587 119.855 15.2267 120.399 14.928C120.953 14.6293 121.545 14.48 122.175 14.48C122.793 14.48 123.332 14.6347 123.791 14.944C124.26 15.2427 124.628 15.6747 124.895 16.24C125.172 16.8053 125.311 17.488 125.311 18.288C125.311 19.0773 125.172 19.7547 124.895 20.32C124.628 20.8853 124.26 21.3227 123.791 21.632C123.332 21.9307 122.793 22.08 122.175 22.08C121.545 22.08 120.953 21.9307 120.399 21.632C119.855 21.3333 119.417 20.9013 119.087 20.336C118.756 19.7707 118.591 19.088 118.591 18.288ZM120.383 18.288C120.383 18.7787 120.484 19.1947 120.687 19.536C120.889 19.8773 121.156 20.1387 121.487 20.32C121.828 20.4907 122.196 20.576 122.591 20.576C122.921 20.576 123.247 20.4907 123.567 20.32C123.897 20.1493 124.164 19.8933 124.367 19.552C124.58 19.2 124.687 18.7787 124.687 18.288C124.687 17.904 124.623 17.5733 124.495 17.296C124.377 17.008 124.217 16.768 124.015 16.576C123.812 16.3733 123.583 16.224 123.327 16.128C123.081 16.032 122.836 15.984 122.591 15.984C122.196 15.984 121.828 16.0747 121.487 16.256C121.156 16.4267 120.889 16.6827 120.687 17.024C120.484 17.3653 120.383 17.7867 120.383 18.288ZM127.966 18.32C127.966 17.5627 128.136 16.896 128.478 16.32C128.83 15.744 129.304 15.296 129.902 14.976C130.499 14.6453 131.176 14.48 131.934 14.48C132.691 14.48 133.363 14.6453 133.95 14.976C134.547 15.296 135.022 15.744 135.374 16.32C135.726 16.896 135.902 17.5627 135.902 18.32C135.902 19.0667 135.726 19.7333 135.374 20.32C135.022 20.896 134.547 21.3493 133.95 21.68C133.363 22 132.691 22.16 131.934 22.16C131.176 22.16 130.499 22 129.902 21.68C129.304 21.3493 128.83 20.896 128.478 20.32C128.136 19.7333 127.966 19.0667 127.966 18.32ZM129.742 18.32C129.742 18.7787 129.838 19.184 130.03 19.536C130.222 19.8773 130.483 20.1493 130.814 20.352C131.144 20.544 131.518 20.64 131.934 20.64C132.339 20.64 132.707 20.544 133.038 20.352C133.379 20.1493 133.646 19.8773 133.838 19.536C134.03 19.184 134.126 18.7787 134.126 18.32C134.126 17.8613 134.03 17.456 133.838 17.104C133.646 16.752 133.379 16.48 133.038 16.288C132.707 16.096 132.339 16 131.934 16C131.518 16 131.144 16.096 130.814 16.288C130.483 16.48 130.222 16.752 130.03 17.104C129.838 17.456 129.742 17.8613 129.742 18.32ZM139.253 14.64V22H137.541V14.64H139.253ZM141.445 16.48C141.285 16.352 141.136 16.256 140.997 16.192C140.859 16.128 140.683 16.096 140.469 16.096C140.181 16.096 139.947 16.1707 139.765 16.32C139.584 16.4693 139.451 16.6773 139.365 16.944C139.291 17.2 139.253 17.504 139.253 17.856L138.677 17.52C138.677 16.9333 138.784 16.416 138.997 15.968C139.221 15.5093 139.504 15.1467 139.845 14.88C140.197 14.6133 140.56 14.48 140.933 14.48C141.2 14.48 141.451 14.5227 141.685 14.608C141.92 14.6827 142.117 14.8213 142.277 15.024L141.445 16.48ZM143.399 11.712C143.399 11.4133 143.506 11.1627 143.719 10.96C143.943 10.7573 144.199 10.656 144.487 10.656C144.796 10.656 145.052 10.7573 145.255 10.96C145.468 11.1627 145.575 11.4133 145.575 11.712C145.575 12 145.468 12.2507 145.255 12.464C145.052 12.6667 144.796 12.768 144.487 12.768C144.199 12.768 143.943 12.6667 143.719 12.464C143.506 12.2507 143.399 12 143.399 11.712ZM143.639 14.64H145.335V22H143.639V14.64ZM150.913 22.16C150.166 22.16 149.505 22 148.929 21.68C148.364 21.36 147.926 20.912 147.617 20.336C147.308 19.76 147.153 19.088 147.153 18.32C147.153 17.5413 147.308 16.864 147.617 16.288C147.937 15.712 148.385 15.2693 148.961 14.96C149.537 14.64 150.214 14.48 150.993 14.48C151.772 14.48 152.433 14.6293 152.977 14.928C153.521 15.2267 153.937 15.6587 154.225 16.224C154.524 16.7787 154.673 17.4507 154.673 18.24C154.673 18.3253 154.668 18.416 154.657 18.512C154.657 18.608 154.652 18.6773 154.641 18.72H148.177V17.536H153.169L152.641 18.272C152.673 18.208 152.705 18.1227 152.737 18.016C152.78 17.8987 152.801 17.8027 152.801 17.728C152.801 17.3333 152.721 16.992 152.561 16.704C152.412 16.416 152.198 16.192 151.921 16.032C151.654 15.872 151.34 15.792 150.977 15.792C150.54 15.792 150.166 15.888 149.857 16.08C149.548 16.272 149.313 16.5493 149.153 16.912C148.993 17.2747 148.908 17.7227 148.897 18.256C148.897 18.7893 148.977 19.2427 149.137 19.616C149.297 19.9787 149.532 20.256 149.841 20.448C150.161 20.64 150.545 20.736 150.993 20.736C151.462 20.736 151.873 20.64 152.225 20.448C152.577 20.256 152.87 19.9627 153.105 19.568L154.593 20.176C154.209 20.8373 153.713 21.3333 153.105 21.664C152.497 21.9947 151.766 22.16 150.913 22.16ZM156.659 19.584C156.893 19.84 157.128 20.064 157.363 20.256C157.608 20.4373 157.853 20.576 158.099 20.672C158.344 20.7573 158.589 20.8 158.835 20.8C159.144 20.8 159.384 20.7307 159.555 20.592C159.736 20.4533 159.827 20.2613 159.827 20.016C159.827 19.8027 159.757 19.6213 159.619 19.472C159.48 19.312 159.288 19.1787 159.043 19.072C158.797 18.9547 158.509 18.8373 158.179 18.72C157.848 18.592 157.517 18.4427 157.187 18.272C156.867 18.0907 156.6 17.856 156.387 17.568C156.184 17.28 156.083 16.9173 156.083 16.48C156.083 16.032 156.195 15.6587 156.419 15.36C156.653 15.0613 156.963 14.8427 157.347 14.704C157.741 14.5547 158.163 14.48 158.611 14.48C159.016 14.48 159.395 14.5387 159.747 14.656C160.109 14.7733 160.435 14.928 160.723 15.12C161.011 15.312 161.256 15.5307 161.459 15.776L160.499 16.8C160.253 16.512 159.96 16.2773 159.619 16.096C159.277 15.9147 158.925 15.824 158.563 15.824C158.317 15.824 158.115 15.8773 157.955 15.984C157.795 16.0907 157.715 16.2453 157.715 16.448C157.715 16.6187 157.784 16.7733 157.923 16.912C158.072 17.04 158.264 17.1573 158.499 17.264C158.744 17.3707 159.016 17.4827 159.315 17.6C159.72 17.76 160.093 17.936 160.435 18.128C160.776 18.32 161.048 18.5547 161.251 18.832C161.464 19.1093 161.571 19.472 161.571 19.92C161.571 20.6133 161.331 21.1733 160.851 21.6C160.381 22.016 159.741 22.224 158.931 22.224C158.429 22.224 157.965 22.1493 157.539 22C157.123 21.84 156.755 21.6373 156.435 21.392C156.125 21.136 155.864 20.8693 155.651 20.592L156.659 19.584Z" fill="white"/>
<rect x="5.05469" y="8" width="15.1639" height="2" fill="white"/>
<rect y="16" width="20.2186" height="2" fill="white"/>
<rect y="24" width="15.1639" height="2" fill="white"/>
<rect opacity="0.1" x="183.989" width="1.01093" height="30" fill="white"/>
</svg>
