<svg width="22" height="20" viewBox="0 0 22 20" fill="none" xmlns="http://www.w3.org/2000/svg">
<path d="M11.0111 8.33333C11.8914 8.33333 12.7519 8.089 13.4838 7.63108C14.2157 7.17328 14.7861 6.52254 15.123 5.76118C15.4598 4.99982 15.548 4.16205 15.3762 3.35379C15.2045 2.54554 14.7806 1.80311 14.1582 1.22039C13.5358 0.637673 12.7428 0.240832 11.8794 0.080065C11.016 -0.08071 10.1212 0.00180669 9.30796 0.317165C8.4947 0.632531 7.79961 1.16659 7.31056 1.85179C6.82152 2.537 6.5605 3.34258 6.5605 4.16666C6.56191 5.27133 7.03127 6.33036 7.86562 7.11148C8.69997 7.89258 9.83117 8.332 11.0111 8.33333V8.33333ZM11.0111 1.66666C11.5392 1.66666 12.0556 1.81329 12.4947 2.08799C12.9339 2.3627 13.2761 2.75314 13.4782 3.20996C13.6803 3.66677 13.7332 4.16944 13.6302 4.65439C13.5271 5.13935 13.2728 5.5848 12.8993 5.93443C12.5259 6.28406 12.0501 6.52216 11.5321 6.61863C11.0141 6.71509 10.4771 6.66558 9.98917 6.47636C9.50129 6.28715 9.08422 5.96671 8.79079 5.55559C8.49737 5.14447 8.34075 4.66112 8.34075 4.16666C8.34075 3.50362 8.62209 2.86774 9.12288 2.3989C9.62369 1.93006 10.3029 1.66666 11.0111 1.66666ZM3 17.5V14.1667C3.00142 13.062 3.47077 12.003 4.30512 11.2218C5.13947 10.4407 6.27068 10.0013 7.45062 10H14.5716C15.7516 10.0013 16.8827 10.4407 17.7171 11.2218C18.5515 12.003 19.0208 13.062 19.0222 14.1667V17.5C19.0222 17.721 18.9284 17.933 18.7615 18.0892C18.5946 18.2455 18.3682 18.3333 18.1321 18.3333C17.8961 18.3333 17.6696 18.2455 17.5027 18.0892C17.3358 17.933 17.242 17.721 17.242 17.5V14.1667C17.242 13.5037 16.9606 12.8677 16.4598 12.3989C15.9591 11.9301 15.2798 11.6667 14.5716 11.6667H7.45062C6.7424 11.6667 6.06318 11.9301 5.56238 12.3989C5.06159 12.8677 4.78025 13.5037 4.78025 14.1667V17.5C4.78025 17.721 4.68647 17.933 4.51954 18.0892C4.35261 18.2455 4.1262 18.3333 3.89012 18.3333C3.65405 18.3333 3.42764 18.2455 3.26071 18.0892C3.09378 17.933 3 17.721 3 17.5Z" fill="white"/>
</svg>
